<svg id="Layer_1" data-name="Layer 1" xmlns="http://www.w3.org/2000/svg" viewBox="0 0 1286.89 785.46"><defs><style>.cls-1{fill:#372618;}</style></defs><path class="cls-1" d="M1430.37,791.5c-16.13-40.69-36.82-79.19-63.18-114.18-26-34.53-55.7-65.81-89.87-92.38a506.87,506.87,0,0,0-117.13-68.3c-41.45-17.25-85-27.75-129.49-33-44.33-5.23-88.9-3.63-133,3.21-42,6.52-82.39,19.16-121.18,36.31-38,16.82-73.11,38.93-105.63,64.76-32.24,25.61-60.36,55.46-85.2,88.23-25.19,33.22-45.15,69.58-61.11,108-16.36,39.45-26.48,80.67-32,123-1.24,9.52-2.88,19.47-2.88,29.08,0,13.34,11.73,26.12,25.5,25.5s25.5-11.2,25.5-25.5c0-10.23,1.77-20.79,3.13-30.91l-.91,6.78a469.28,469.28,0,0,1,30.87-114.36c1.81-4.41-2.6,6.07-.72,1.69.48-1.09.95-2.19,1.42-3.28.8-1.82,1.6-3.64,2.42-5.45q3.18-7.05,6.61-14,6.29-12.76,13.37-25.13a463.74,463.74,0,0,1,31.8-48.28l2.14-2.82c2.83-3.74-4,5.13-1.11,1.44,1.45-1.85,2.91-3.71,4.39-5.54q4.43-5.5,9-10.86,9.57-11.17,19.82-21.71a466.08,466.08,0,0,1,41.73-38q2.76-2.21,5.54-4.38c3.7-2.91-5.18,3.94-1.43,1.11.94-.72,1.87-1.43,2.82-2.14q6.12-4.6,12.39-9,11.61-8.14,23.69-15.55A461,461,0,0,1,799,568.66c2.18-1,4.36-1.95,6.55-2.89,1.09-.48,2.19-.94,3.29-1.41-8.16,3.53-2.41,1-.58.27q7.76-3.17,15.63-6,15.26-5.58,30.88-10.08a463.47,463.47,0,0,1,65.64-13.8l-6.78.91a471.18,471.18,0,0,1,124.14-.07l-6.78-.91a461.92,461.92,0,0,1,94.43,23c7.32,2.63,14.56,5.48,21.75,8.45,3.06,1.27-6.36-2.74-2-.85l2.31,1,5.17,2.29q5.71,2.58,11.36,5.31a461.82,461.82,0,0,1,41.07,22.51c13.25,8.16,27,16.73,38.89,26.79-.07-.06-5.31-4.14-2.22-1.71l2.44,1.91,4.36,3.49q4.82,3.9,9.53,7.94,8.72,7.46,17.05,15.33a462.75,462.75,0,0,1,32.13,33.56c5.15,5.94,10.11,12,15,18.19,2.89,3.66-3.3-4.32-1.33-1.72.63.82,1.26,1.64,1.88,2.47q1.5,2,3,4,3.69,5,7.25,10.09a461.81,461.81,0,0,1,27.46,44.51q6.4,11.83,12.11,24,2.79,6,5.41,12c.34.77.65,1.55,1,2.31-3.33-7.4-1.35-3.22-.62-1.45q1.44,3.5,2.83,7c2.53,6.39,5.57,11.64,11.72,15.24,5.47,3.2,13.52,4.55,19.65,2.57s12.12-5.82,15.24-11.72c3-5.69,5-13.39,2.57-19.65Z" transform="translate(-345.74 -480.54)"/><path class="cls-1" d="M1412.37,962.7a467.54,467.54,0,0,1-2.36,52.38q-.75,7.33-1.73,14.64l.92-6.78q-.48,3.58-1,7.15a19.34,19.34,0,0,0-.45,10.17,26.23,26.23,0,0,0,18.26,21.2l6.78.91a25.32,25.32,0,0,0,12.87-3.48l5.16-4a25.45,25.45,0,0,0,6.56-11.25,523.28,523.28,0,0,0,5.9-64.44q.21-8.25.11-16.51a19.16,19.16,0,0,0-2.2-9.82,22.89,22.89,0,0,0-13.48-13.48,19.16,19.16,0,0,0-9.82-2.2l-6.78.91a25.45,25.45,0,0,0-11.25,6.56c-4.55,5-7.55,11.15-7.47,18Z" transform="translate(-345.74 -480.54)"/><path class="cls-1" d="M679.25,1011.45q0,37.74-1.9,43.9-3.18,12-34.33,70.41-32,59.71-38.15,62.92-3,1.6-17.8,1.61-14.21,0-18.65-1.61-5.92-2.42-38.78-60.51-32-56.48-35.81-68.8-5.08-16.87-5.09-52.21,0-11,.43-32.93c.28-14.63.46-25.61.42-32.93-.12-21.19,10.89-5.77,25.54-5.09,7.09.34,16.94-3.37,20.87.81,1.74,1.85,3.81,1.78,3.81,5.35q0,8.58-.84,25.3t-.85,25.3a434.41,434.41,0,0,0,2.12,45q1.05,10.18,21.51,49.8t25.32,39.62q4.66,0,23.1-38.82,18.23-38,19.5-47.92,1.7-13.38,1.69-46.05,0-8.83-1.38-26.51t-1.37-26.5q0-4,3.18-4,7,0,20.55-.93t20.35-.94Q679.24,935.68,679.25,1011.45Z" transform="translate(-345.74 -480.54)"/><path class="cls-1" d="M921.9,997.23a25.43,25.43,0,0,1-.64,3.82q-8.26,48.53-8.26,83.7,0,2.13,5.29,95.15l.22,3q.19,6.15-5.62,6.14a165.77,165.77,0,0,0-17.59,1.38,165.71,165.71,0,0,1-17.48,1.38q-4,0-6.15-14.84t-4-14.83q-1.27,0-11.45,8.27a124.64,124.64,0,0,1-23.31,15.47q-16.74,8.46-33.48,8.47-41.11,0-69.3-32.84-26.7-31.37-26.7-73.12,0-47,26.92-77.77,28.17-32,74.17-32,32.41,0,56.58,22.47,3.6,4.23,11.23,12.29a1.84,1.84,0,0,0,1.27.63q1.27,0,3.6-13.35t5.94-13.35q5.71,0,21.4,3.18Q921.89,994.26,921.9,997.23Zm-54,88.58q0-26.07-15.47-44.71Q836.07,1021,810.64,1021t-42.38,19.92q-16.32,19.06-16.32,44.92,0,25.65,16.32,44.5Q785.21,1150,810.64,1150q24.79,0,41.54-20.13Q867.86,1111,867.86,1085.81Z" transform="translate(-345.74 -480.54)"/><path class="cls-1" d="M1074.47,1150q0,4.67-.84,12.72-1.07,10-1.28,12.92a16.68,16.68,0,0,1-.63,4.67q-.85,1.49-4,3-17.37,8.26-54.67,8.27-49.59,0-49.59-44.93,0-18,.85-54.14t.85-54.15q0-8.68-8.69-9.32-7.85,0-15.47-.21-4.46-1.07-4.45-17.38a103.56,103.56,0,0,1,.85-12.93q.63-5.09,6.78-6.14,5.29,0,10.38-.21,9.75-.43,9.75-8.69,0-8.48-.53-25.86t-.53-26.06q0-15.46,5.93-15.47,1.9,0,39.84,6.57c3.25.42,4.88,2,4.88,4.66q0,9.33-1.38,28t-1.38,28c0,4.1,1.91,6.14,5.72,6.14h50.86q3.6,0,3.6,2.54a68.82,68.82,0,0,1-.74,8.16,71.59,71.59,0,0,0-.74,8.37q0,3.18.21,9.75c.14,4.38.22,7.63.22,9.75,0,2.68-2,4-5.94,4q-8.47,0-25.64-1.17t-25.64-1.17q-1.69,0-2.54,12.08-1.07,15.06-1.06,42.17v31.58q0,18.23,3.39,25.43,5.09,11,21,11,6.56,0,19.28-2.86t18.86-2.86C1073.63,1146.21,1074.47,1147.48,1074.47,1150Z" transform="translate(-345.74 -480.54)"/><path class="cls-1" d="M1226,990a258.81,258.81,0,0,1-3.18,42.38q-.63,4.88-4.23,4.87-4.45,0-13.46-1t-13.67-.95q-26.7,0-34.12,15-4.44,9.12-4.45,37.93v23.32q0,11.86,1,36t1,36c0,3.81-1.63,5.72-4.87,5.72q-6.59,0-19.92-.21t-19.92-.22c-3.26,0-4.88-1.76-4.88-5.29q0-17.17.53-51.71t.53-51.92q0-52.33-9.75-84.13a11.71,11.71,0,0,1-.42-2.54,3.72,3.72,0,0,1,2.75-3.61q7.85-.84,22-2.54,22.89-4.23,21.19-4.24,3.39,0,4.45,12.51t3.82,12.5a2.1,2.1,0,0,0,1.06-.42l17.38-11a78.31,78.31,0,0,1,19.49-8.48q8.26-2.55,21.19-2.54Q1226,985.58,1226,990Z" transform="translate(-345.74 -480.54)"/><path class="cls-1" d="M1459.11,997.23c4.29.66-5.56,73.51-8.9,87.52-3.27,13.71,1.77,33.13,5.3,95.15l.21,3q.21,6.15-5.61,6.14a165.77,165.77,0,0,0-17.59,1.38,165.66,165.66,0,0,1-17.49,1.38q-4,0-6.14-14.84t-4-14.83q-1.26,0-11.44,8.27a125.29,125.29,0,0,1-23.31,15.47q-16.74,8.46-33.48,8.47-41.12,0-69.3-32.84-26.7-31.37-26.7-73.12,0-47,26.91-77.77,28.18-32,74.17-32,32.43,0,56.58,22.47,3.6,4.23,11.24,12.29c2.54,2.34.43-26.74,10.8-26.07s11,1.06,21.41,3.18C1453.32,993,1457.16,996.93,1459.11,997.23Zm-54,88.58q0-26.07-15.46-44.71-16.33-20.13-41.75-20.13t-42.38,19.92q-16.34,19.06-16.32,44.92,0,25.65,16.32,44.5,16.95,19.71,42.38,19.71,24.8,0,41.53-20.13Q1405.08,1111,1405.07,1085.81Z" transform="translate(-345.74 -480.54)"/><path class="cls-1" d="M1156.23,1215H426.85c-9.55,0-19.1,0-28.64,0a44.18,44.18,0,0,1-5.51-.34l6.77.91a34,34,0,0,1-6.27-1.71l6.09,2.57a30.39,30.39,0,0,1-6.3-3.58l5.16,4a28.53,28.53,0,0,1-4.25-4.19l4,5.16a25.57,25.57,0,0,1-3-5l2.58,6.09a23.65,23.65,0,0,1-1.31-4.67l.91,6.78a87.26,87.26,0,0,1-.23-10.85V939.42c0-12.53-.19-25.08,0-37.61a31.05,31.05,0,0,1,.23-3.34l-.91,6.78a23.75,23.75,0,0,1,1.31-4.68l-2.58,6.09a25.87,25.87,0,0,1,3-5l-4,5.16a28.47,28.47,0,0,1,4.25-4.18l-5.16,4a30.35,30.35,0,0,1,6.3-3.57l-6.09,2.57a34,34,0,0,1,6.27-1.71l-6.77.91c10.07-1.35,20.79-.34,30.92-.34h29.53c13.34,0,26.12-11.73,25.5-25.5s-11.2-25.5-25.5-25.5H424c-10,0-20.27-.78-30.21.19-17,1.66-33.25,9.72-41.84,25.09A48.11,48.11,0,0,0,345.88,902c0,3.66,0,7.31,0,11v283.29c0,15.08-1.67,31.3,6.32,44.86,9.45,16,27.41,24.76,45.68,24.86h758.35c13.34,0,26.12-11.73,25.5-25.5s-11.2-25.5-25.5-25.5Z" transform="translate(-345.74 -480.54)"/><path class="cls-1" d="M1156.23,1266a19.22,19.22,0,0,0,9.83-2.2,26.18,26.18,0,0,0,15.67-23.3l-.91-6.78a25.43,25.43,0,0,0-6.55-11.25c-5-4.58-11.13-7.47-18-7.47a26.23,26.23,0,0,0-25.5,25.5l.91,6.78a25.55,25.55,0,0,0,6.56,11.25c5,4.58,11.12,7.47,18,7.47Z" transform="translate(-345.74 -480.54)"/><path class="cls-1" d="M1495,904.46h71.92a105.85,105.85,0,0,1,13,.31l-6.78-.91a37.1,37.1,0,0,1,9.31,2.52l-6.09-2.57a34.31,34.31,0,0,1,7.1,4.14l-5.16-4a31.23,31.23,0,0,1,5.3,5.23l-4-5.16a28.37,28.37,0,0,1,3.67,6.27l-2.57-6.09a26.26,26.26,0,0,1,1.65,6.15l-.91-6.78a89.57,89.57,0,0,1,.22,10.87V1206c0,3.88,0,7.76,0,11.63a25.18,25.18,0,0,1-.2,3.13l.91-6.78a21.2,21.2,0,0,1-1.32,4.83l2.57-6.09a22.86,22.86,0,0,1-3,5.09l4-5.16a26,26,0,0,1-4.34,4.24l5.16-4a28.54,28.54,0,0,1-5.88,3.37l6.09-2.58a29.93,29.93,0,0,1-7.37,2l6.78-.91a88.69,88.69,0,0,1-10,.23H1325.73c-3.5,0-7,0-10.49,0h-.45a26.27,26.27,0,0,0-18,7.47,28.3,28.3,0,0,0-7.47,18c.29,6.59,2.46,13.43,7.47,18s11.12,7.47,18,7.47h266.5a57,57,0,0,0,7.12-.69,51.7,51.7,0,0,0,7.92-1.4,49.85,49.85,0,0,0,26.3-17.74,44.52,44.52,0,0,0,4-5.62,59.73,59.73,0,0,0,4-9.42,43.38,43.38,0,0,0,2-13.35c0-1.43,0-2.85,0-4.27V908.75a66.5,66.5,0,0,0-1.44-13.76,24.86,24.86,0,0,0-1-3.49,70.93,70.93,0,0,0-4.18-9.6,28.74,28.74,0,0,0-2.12-3.25,71.88,71.88,0,0,0-6.56-8.12,34.13,34.13,0,0,0-3-2.63,78,78,0,0,0-8.33-6.14,38.09,38.09,0,0,0-3.93-2,84,84,0,0,0-9.86-3.92c-7.15-2.12-14.59-2.39-22-2.39H1495a26.31,26.31,0,0,0-18,7.47,28.36,28.36,0,0,0-7.46,18c.29,6.59,2.46,13.43,7.46,18s11.13,7.47,18,7.47Z" transform="translate(-345.74 -480.54)"/><path class="cls-1" d="M592.49,904.46h877.43c11.85,0,23.71.13,35.57,0H1507c13.34,0,26.12-11.73,25.5-25.5s-11.2-25.5-25.5-25.5H629.61c-11.85,0-23.71-.13-35.57,0h-1.55c-13.34,0-26.12,11.73-25.5,25.5s11.2,25.5,25.5,25.5Z" transform="translate(-345.74 -480.54)"/><path class="cls-1" d="M1236.4,1266a26.19,26.19,0,0,0,25.5-25.5l-.91-6.78a25.43,25.43,0,0,0-6.55-11.25c-5-4.58-11.13-7.47-18-7.47a26.23,26.23,0,0,0-25.5,25.5l.92,6.78a25.43,25.43,0,0,0,6.55,11.25c5,4.58,11.13,7.47,18,7.47Z" transform="translate(-345.74 -480.54)"/></svg>