<?xml version="1.0" encoding="utf-8"?>
<!-- Generator: Adobe Illustrator 25.4.1, SVG Export Plug-In . SVG Version: 6.00 Build 0)  -->
<svg version="1.1" xmlns="http://www.w3.org/2000/svg" xmlns:xlink="http://www.w3.org/1999/xlink" x="0px" y="0px"
	 viewBox="0 0 1920 1080" style="enable-background:new 0 0 1920 1080;" xml:space="preserve">
<style type="text/css">
	.st0{display:none;}
	.st1{display:inline;fill:#FF9A15;}
	.st2{display:inline;fill:none;}
	.st3{fill:#18100A;}
</style>
<g id="Layer_1" class="st0">
	<path class="st1" d="M82.9,410.4c0.3,1.4,0.5,2.8,0.8,4.2C83.4,413.1,83.2,411.8,82.9,410.4z M74.3,386.2L74.3,386.2
		c2.6,13.7,5.1,27.5,7.6,41.2L74.3,386.2z M79,393.9c0.5,1.8,1,3.6,1.5,5.5C80,397.5,79.5,395.7,79,393.9z M76.3,385.7L76.3,385.7
		c0.2,0.5,0.3,0.9,0.5,1.4C76.6,386.6,76.4,386.2,76.3,385.7L76.3,385.7z M70.7,358.7L70.7,358.7c0.4-2.9,0.7-5.7,1-8.6
		C71.4,352.9,71,355.8,70.7,358.7L70.7,358.7z M64.3,279.9L64.3,279.9L64.3,279.9c0.7,8.5,1.4,17,2.1,25.5L64.3,279.9z"/>
	<path class="st1" d="M63.8,144.8C30.9,106.1,35.8,31.6,73.2-2.8C102,30.7,102.8,105,63.8,144.8z"/>
	<path class="st1" d="M58.2,314.1C9.7,298.2-17,238.5-6.2,200.2C31.5,207.1,69.8,274.6,58.2,314.1z"/>
	<path class="st1" d="M-16.7,385.4c51.6,2.8,93.2,50.8,96.3,88.8C35.4,476.5-14.6,430.9-16.7,385.4z"/>
	<path class="st1" d="M75.9,191.2c-11.6-45.2,16.9-101,56.8-118.1C147.2,109.7,123.1,174.1,75.9,191.2z"/>
	<path class="st1" d="M61,391c-48.4-7.7-84.5-65.3-77.7-105.4C25.2,292.7,64.5,345.8,61,391z"/>
	<path class="st1" d="M153.6,445.9c31.9,35,29.4,101.3-1.9,131.3C125.2,547.7,121,483.2,153.6,445.9z"/>
	<path class="st1" d="M72.6,335.8c0,0.6,0,1.3-0.1,1.9s-0.1,1.3-0.1,1.9s-0.1,1.3-0.1,1.9l0,0c-0.1,1.4-0.2,2.9-0.3,4.3
		s-0.2,2.9-0.4,4.3l0,0c-0.3,2.9-0.6,5.7-1,8.6l0,0c-0.7-8.9-1.4-17.8-2.1-26.7l-2.2-26.6c-0.7-8.5-1.4-17-2.1-25.5l0,0l0,0l0.6,1.5
		l0,0c0.3,0.9,0.6,1.7,0.9,2.6c0.9,2.6,1.7,5.2,2.5,7.9c0.2,0.9,0.5,1.8,0.7,2.6c1,4.1,1.8,8.3,2.4,12.4l0.2,1.5c0.1,1,0.2,2,0.4,3
		c0.2,1.5,0.3,3,0.4,4.5c0,0.6,0.1,1.1,0.1,1.7c0.1,0.9,0.1,1.7,0.2,2.6v0.6C72.8,325.8,72.8,330.8,72.6,335.8z"/>
	<path class="st1" d="M76.8,387.1c-0.2-0.5-0.3-0.9-0.5-1.4l0,0C76.4,386.2,76.6,386.6,76.8,387.1z"/>
	<path class="st1" d="M80.5,399.3c-0.5-1.8-1-3.6-1.5-5.5C79.5,395.7,80,397.5,80.5,399.3z"/>
	<path class="st1" d="M81.9,427.3c-2.5-13.7-5.1-27.4-7.6-41.2l0,0L81.9,427.3z"/>
	<path class="st1" d="M83.7,414.5c-0.2-1.4-0.5-2.8-0.8-4.2C83.2,411.8,83.4,413.1,83.7,414.5z"/>
	<path class="st1" d="M1869.3,348.3c1.3,9.7,2.6,19.4,3.9,29.1l0,0C1871.9,367.7,1870.6,358,1869.3,348.3z M1870,363.8
		c-0.9-4.7-1.8-9.5-2.8-14.2c1.8,9.3,3.8,18.6,4.8,28l0,0c-0.2-2.3-0.5-4.6-0.9-7S1870.4,366.1,1870,363.8L1870,363.8z
		 M1865.4,319.1h-0.3H1865.4z M1864,324.8c0-0.8,0-1.5,0-2.3v-1.2c0-0.1,0-0.2,0-0.2c0-0.2,0-0.5,0-0.7v0c0-0.3,0-0.7,0-1h0.3h-0.3
		C1864,321.1,1864,323,1864,324.8L1864,324.8z M1862,301.3L1862,301.3L1862,301.3c-3.4-14-6.7-28-10.1-42
		C1855.3,273.4,1858.7,287.4,1862,301.3L1862,301.3z"/>
	<path class="st1" d="M1822.8,167.6c12.5-30.7-5.7-75.8-35.8-89.5C1776,104.7,1790.5,150.9,1822.8,167.6z"/>
	<path class="st1" d="M1860.7,271.2c26.8-19.7,31.2-62.1,16.7-83.7C1855.4,199.5,1845.4,249.1,1860.7,271.2z"/>
	<path class="st1" d="M1921.5,300.1c-31.4,12.3-47.4,50.4-41.6,74.6C1907.8,367.1,1929.5,328.7,1921.5,300.1z"/>
	<path class="st1" d="M1824.7,198.8c-2-30.3-31-59.1-59.2-61.6C1764,162.8,1792,197.8,1824.7,198.8z"/>
	<path class="st1" d="M1874.5,319.4c28.4-14.6,39-57.6,26.7-81.1C1876.8,251.3,1863.2,292.2,1874.5,319.4z"/>
	<path class="st1" d="M1828.4,372.3c-12.6,28.2,2.4,68.7,27.8,80.9C1866.7,429.5,1856.1,388.7,1828.4,372.3z"/>
	<path class="st1" d="M1862,301.4L1862,301.4L1862,301.4c-0.6-1.4-1.3-2.7-1.9-4l0,0c-0.4-0.9-0.8-1.8-1.2-2.8
		c-0.2-0.5-0.4-0.9-0.6-1.4s-0.4-0.9-0.6-1.4l-0.6-1.4l-0.5-1.4c-0.3-0.9-0.7-1.9-1-2.8s-0.7-1.9-1-2.8c-0.2-0.5-0.3-0.9-0.5-1.4
		s-0.2-0.7-0.3-1.1s-0.2-0.7-0.3-1s-0.2-0.7-0.3-1s-0.2-0.7-0.3-1.1s-0.3-1-0.4-1.4s-0.2-0.8-0.3-1.1s-0.2-1-0.3-1.4
		s-0.2-1.1-0.4-1.7c-0.2-1-0.4-1.9-0.6-2.9c-0.1-0.5-0.2-1-0.2-1.5c-0.1-0.9-0.3-1.8-0.4-2.7c0-0.2-0.1-0.5-0.1-0.7
		c0-0.3-0.1-0.5-0.1-0.8l-0.1-0.6c0-0.4-0.1-0.8-0.1-1.1s-0.1-1-0.1-1.5s-0.1-1-0.1-1.4c0-0.1,0-0.2,0-0.3c0,0,0-0.1,0-0.1
		c0-0.4,0-0.7,0-1.1c-0.1-2,0-4,0.1-6c0.7,2.7,1.3,5.4,2,8.1C1855.3,273.5,1858.7,287.4,1862,301.4z"/>
	<path class="st1" d="M1873.2,377.5L1873.2,377.5l-1.2,0.2l0,0c-1-9.4-3-18.7-4.8-28c-0.3-1.7-0.6-3.3-0.9-5
		c-0.1-0.7-0.2-1.4-0.3-2.1c-0.2-1-0.3-2-0.5-2.9c-0.2-1.2-0.3-2.3-0.5-3.5l-0.2-1.7c-0.1-1.2-0.3-2.4-0.4-3.5
		c-0.1-0.5-0.1-1-0.1-1.5c-0.1-1.1-0.1-2.1-0.2-3.2v-0.6c0-0.2,0-0.5,0-0.7c0-1.8,0-3.7,0-5.5h0.3l0.6-0.1h0.3l0,0
		c1.3,9.7,2.6,19.4,3.9,29.1S1871.9,367.8,1873.2,377.5z"/>
	<path class="st1" d="M1335.5,725.2c1.8,13.7,3.7,27.4,5.5,41.2l0,0C1339.2,752.6,1337.3,738.9,1335.5,725.2z M1340.2,766.5
		c-0.1-0.8-0.2-1.6-0.3-2.5C1340,764.8,1340.1,765.6,1340.2,766.5l0.5-0.1L1340.2,766.5z M1334.5,725.3L1334.5,725.3h0.3H1334.5z
		 M1324.6,677.3L1324.6,677.3L1324.6,677.3c1.1,4.3,2.1,8.7,3.1,13C1326.7,686,1325.7,681.6,1324.6,677.3L1324.6,677.3z"/>
	<path class="st1" d="M1305.4,618.1c8.8-21.7-4-53.6-25.3-63.2C1272.3,573.7,1282.6,606.3,1305.4,618.1z"/>
	<path class="st1" d="M1332.2,691.3c18.9-14,22.1-43.9,11.8-59.1C1328.5,640.7,1321.4,675.7,1332.2,691.3z"/>
	<path class="st1" d="M1375.1,711.7c-22.2,8.7-33.5,35.6-29.4,52.7C1365.5,759.1,1380.8,732,1375.1,711.7z"/>
	<path class="st1" d="M1306.8,640.2c-1.4-21.4-21.9-41.8-41.8-43.5C1263.9,614.8,1283.7,639.5,1306.8,640.2z"/>
	<path class="st1" d="M1342,725.4c20-10.3,27.6-40.7,18.8-57.3C1343.5,677.2,1334,706.1,1342,725.4z"/>
	<path class="st1" d="M1309.4,762.7c-8.9,19.9,1.7,48.5,19.7,57.1C1336.4,803.1,1329,774.3,1309.4,762.7z"/>
	<path class="st1" d="M1333.1,712.6l-0.9-1.9c-0.2-0.5-0.4-1-0.7-1.5s-0.5-1.1-0.7-1.7s-0.5-1.1-0.7-1.7l0,0l-0.8-2
		c-0.2-0.7-0.5-1.3-0.7-2s-0.5-1.3-0.7-2c-0.9-2.6-1.6-5.3-2.2-8c-0.2-1-0.4-2-0.6-3.1c-0.1-0.7-0.2-1.4-0.3-2.1l-0.1-0.9
		c-0.3-2.9-0.4-5.8-0.2-8.6l0,0l0,0c1.1,4.4,2.1,8.7,3.1,13.1L1333.1,712.6z"/>
	<path class="st1" d="M1341,766.3L1341,766.3h-0.2h-0.2l-0.5,0.1c-0.1-0.8-0.2-1.6-0.3-2.5s-0.2-1.6-0.3-2.5
		c-0.1-0.5-0.1-0.9-0.2-1.4c-0.3-1.7-0.6-3.3-0.9-5l-0.4-2.1c-0.4-2-0.8-4-1.2-6.1c-0.1-0.6-0.2-1.2-0.3-1.8s-0.2-1.2-0.3-1.8
		c-0.2-0.8-0.3-1.6-0.4-2.4c-0.2-1.6-0.5-3.2-0.7-4.7l-0.1-0.5v-0.2c0-0.4-0.1-0.8-0.1-1.2V734c0-0.3-0.1-0.6-0.1-0.8
		s-0.1-0.8-0.1-1.2s-0.1-0.8-0.1-1.2c0-0.7-0.1-1.4-0.1-2.1c0-0.5,0-0.9,0-1.4c0-0.7,0-1.3,0-2l0,0h0.3l0.6-0.1
		C1337.3,738.9,1339.2,752.6,1341,766.3z"/>
	<path class="st1" d="M1008.9,920c-0.2,0-0.5,0.1-0.8,0.1l0,0h-0.4h-0.3h-0.3l-0.7,0.1c1.4-0.1,2.7-0.2,4-0.5
		C1010,919.8,1009.4,919.9,1008.9,920z M1012.2,919.5c0.8-0.1,1.6-0.3,2.4-0.5C1013.8,919.2,1013,919.3,1012.2,919.5L1012.2,919.5z
		 M1015.3,918.8l-0.8,0.2c0.6-0.1,1.2-0.3,1.8-0.5L1015.3,918.8z M1018.1,918.1l-0.4,0.1l-1.2,0.3c1.3-0.3,2.6-0.7,3.9-1.2
		C1019.5,917.6,1018.8,917.8,1018.1,918.1L1018.1,918.1z M1022.1,916.8l0.4-0.1l1.1-0.4C1023,916.4,1022.5,916.6,1022.1,916.8
		L1022.1,916.8z M1038.9,908.5L1038.9,908.5l-1.4,0.8c0.2-0.1,0.5-0.3,0.7-0.4S1038.7,908.7,1038.9,908.5L1038.9,908.5z
		 M1068.5,902.8c2.3-0.6,4.5-1.3,6.8-2C1073,901.5,1070.7,902.1,1068.5,902.8L1068.5,902.8z M1080.5,899.3c1.7-0.5,3.3-0.9,5-1.4
		C1083.8,898.3,1082.1,898.8,1080.5,899.3L1080.5,899.3z M1091.8,896.3v0.1l0,0V896.3z"/>
	<path class="st1" d="M947.5,945c-22.4-6.8-52.9,9-60.5,31.2C906.4,982.1,937.9,968.8,947.5,945z"/>
	<path class="st1" d="M1017.8,911.5c-15.7-17.6-45.7-17.8-59.9-6.2C967.8,919.9,1003.3,923.6,1017.8,911.5z"/>
	<path class="st1" d="M1034,866.7c10.7,21.3,38.6,30,55.2,24.3C1082,871.9,1053.6,859.2,1034,866.7z"/>
	<path class="st1" d="M969.3,941.6c-21.2,3.4-39.5,25.7-39.3,45.8C948,986.7,970.8,964.7,969.3,941.6z"/>
	<path class="st1" d="M1050.7,898.5c-12.2-19-43.1-23.6-58.7-13.4C1002.7,901.5,1032.3,908.3,1050.7,898.5z"/>
	<path class="st1" d="M1090.9,927.4c20.6,7,48.1-6.2,55-25C1128.6,896.7,1100.6,906.8,1090.9,927.4z"/>
	<path class="st1" d="M1038.9,908.5c-0.2,0.1-0.5,0.3-0.7,0.4s-0.5,0.3-0.7,0.4l-0.2,0.1l-1.2,0.7l-1.2,0.7
		c-0.4,0.2-0.7,0.4-1.1,0.6l-1.1,0.6c-0.3,0.2-0.7,0.4-1,0.5l-0.6,0.3l-0.7,0.4l-1.1,0.6c-0.4,0.2-0.8,0.4-1.1,0.5l-0.8,0.4
		l-0.8,0.3l-1,0.5c-0.7,0.3-1.4,0.6-2.1,0.9l-1.1,0.4l-0.4,0.1l-0.7,0.3l-1.1,0.4c-1.3,0.4-2.6,0.8-3.9,1.2
		c-0.6,0.2-1.2,0.3-1.8,0.5c-0.8,0.2-1.6,0.3-2.4,0.5l0,0l-0.8,0.1c-0.3,0-0.5,0.1-0.8,0.1c-1.3,0.2-2.7,0.4-4,0.5h-0.1h-0.3h-0.1
		c-0.2,0-0.4,0-0.6,0h-0.8l17.2-5.9L1038.9,908.5l0.1-0.1L1038.9,908.5z"/>
	<path class="st1" d="M1091.8,896.4L1091.8,896.4l-0.2,0l-1.3,0.3c-1.6,0.3-3.2,0.7-4.7,1.1s-3.3,0.9-5,1.4l-5.2,1.5
		c-2.3,0.7-4.5,1.3-6.8,2c-0.4,0.1-0.9,0.2-1.4,0.4s-0.7,0.2-1,0.3l-1,0.2l-1,0.2l-1,0.2l-1,0.2c-0.3,0.1-0.7,0.2-1,0.2l-1,0.2
		l-1,0.2c-1.1,0.2-2.2,0.4-3.3,0.5c-0.3,0-0.6,0.1-0.9,0.1s-0.6,0.1-0.9,0.1l-0.5,0l-0.8,0.1h-0.2l-1,0.1c0-0.3-0.1-0.6-0.2-0.9
		l40.4-9.4c0.1,0.2,0.1,0.5,0.2,0.7L1091.8,896.4z"/>
	<path class="st1" d="M464,665L464,665z M411.8,629.6L411.8,629.6l0.2-0.2L411.8,629.6z"/>
	<path class="st1" d="M261.1,553.9c-15.5-32-64.6-49.8-97.1-35.5C177.4,546.3,224.6,567.7,261.1,553.9z"/>
	<path class="st1" d="M371,597.9c3.5-35.6-27.2-69.5-54.8-73.3C310,550.7,342.4,594.2,371,597.9z"/>
	<path class="st1" d="M437.6,569.9c-12.7,33.9,6.3,74,29.7,86.7C481.3,628.9,466.1,584.1,437.6,569.9z"/>
	<path class="st1" d="M287.4,574.7c-25.6-20.1-69.4-17.6-91.5,3.3C215.1,597.5,263.1,600.1,287.4,574.7z"/>
	<path class="st1" d="M419.3,621.3c8.7-33.2-18-72.5-45.6-79.4C366.6,570.7,389.5,610.8,419.3,621.3z"/>
	<path class="st1" d="M428.5,696.1c13.4,30.3,56.5,47.3,84.5,35.7C501.5,706.5,461.5,685.7,428.5,696.1z"/>
	<path class="st1" d="M396,618.4l-3.4-1l-2-0.7l-1.2-0.4l-1.8-0.6c-1.1-0.4-2.2-0.8-3.3-1.2l-1.2-0.5l-1.2-0.5l-1.1-0.4l-1.3-0.5
		c-1.1-0.4-2.1-0.9-3.2-1.3l-1.8-0.8c-0.8-0.4-1.6-0.8-2.4-1.1l-0.9-0.4c-0.6-0.3-1.3-0.7-2-1l-1.6-0.9l-0.2-0.1l-1.1-0.6
		c-0.2-0.1-0.4-0.2-0.6-0.3s-0.4-0.2-0.6-0.3c-0.9-0.5-1.8-1-2.6-1.6s-2-1.2-2.9-1.9s-1.8-1.3-2.7-1.9c-0.2-0.1-0.3-0.2-0.5-0.3
		l-1.1-0.9l-1.1-0.9l-0.7-0.6l-0.9-0.7c-0.3-0.3-0.6-0.5-1-0.8c-0.6-0.5-1.1-1-1.7-1.5c-0.9-0.8-1.7-1.6-2.6-2.5l44.1,23.8
		L396,618.4z"/>
	<path class="st1" d="M464.7,664c-0.2,0.4-0.5,0.7-0.7,1.1l0,0c-4.2-3.1-8.7-5.9-13.2-8.7c-1.1-0.7-2.2-1.4-3.4-2
		c-1.4-0.9-2.8-1.7-4.2-2.5c-4.1-2.4-8.2-4.9-12.2-7.5l-2.1-1.4l-0.4-0.3l-1.2-0.8l-1.6-1.1c-0.5-0.4-1.1-0.8-1.6-1.1l-1.6-1.2
		c-0.5-0.4-1.1-0.8-1.6-1.2s-1-0.8-1.6-1.2s-1-0.8-1.5-1.2c-2-1.7-4-3.4-6-5.3l0,0l0.2-0.2l0.7-0.9c8.7,5.9,17.4,11.8,26.1,17.7
		L464.7,664z"/>
	<path class="st1" d="M639.3,762L639.3,762l0.1-0.8C639.4,761.4,639.3,761.7,639.3,762z"/>
	<path class="st1" d="M689.7,548.4c-11.7-30.8-9-81.6,20.3-96C720.2,479,721,530.8,689.7,548.4z"/>
	<path class="st1" d="M651.7,654c-25.6-19.5-34.9-61.9-20.6-84C652.1,581.7,666.7,631.4,651.7,654z"/>
	<path class="st1" d="M592.6,684.5c30.1,11.8,45,50.1,39.1,74.7C604.9,752.1,584.5,713.6,592.6,684.5z"/>
	<path class="st1" d="M687.3,580c2.4-30.7,39-65.5,66.2-68.5C754.7,537.3,718.9,578.3,687.3,580z"/>
	<path class="st1" d="M637.6,703.1c-27.2-14.3-36.8-57.6-24.6-81.6C636.4,634.2,648.9,675.3,637.6,703.1z"/>
	<path class="st1" d="M681.4,755.7c11.8,28.3-3.2,69.6-28,82.4C643.7,814.4,654.4,772.9,681.4,755.7z"/>
	<path class="st1" d="M662.3,636.3c0,0.8,0,1.5,0,2.2c0,0.5,0,0.9,0,1.3c0,0.2,0,0.4,0,0.6l-0.1,1.1c0,0.4,0,0.7-0.1,1.1
		s0,0.6-0.1,0.9c-0.1,0.9-0.2,1.8-0.3,2.7c0,0.5-0.1,0.9-0.2,1.3c0,0.2-0.1,0.5-0.1,0.8s0,0.2,0,0.4c-0.1,0.5-0.2,1-0.2,1.5
		s-0.2,0.9-0.2,1.4c-0.2,1.2-0.5,2.5-0.7,3.7c-0.1,0.4-0.2,0.9-0.3,1.3c-0.1,0.6-0.3,1.2-0.4,1.8l0,0c-0.2,0.6-0.3,1.2-0.5,1.8
		s-0.2,0.9-0.4,1.4s-0.3,0.9-0.4,1.4s-0.3,0.9-0.4,1.4c-0.2,0.7-0.5,1.4-0.7,2.1l-0.4,1.1c-0.2,0.6-0.4,1.1-0.6,1.7
		s-0.4,1.1-0.6,1.7s-0.4,1.1-0.6,1.7l-0.5,1.2c-0.3,0.7-0.6,1.4-0.9,2.2l-0.9,2.2l-0.7,1.6c-0.3,0.7-0.6,1.3-0.9,2
		c-0.4,1-0.8,1.9-1.3,2.8c0.5-2.1,1-4.2,1.5-6.2c3.6-14.9,7.2-29.8,10.8-44.7c0,0.1,0,0.2,0,0.3c0,0.4,0,0.8,0,1.2
		S662.3,635.9,662.3,636.3z"/>
	<path class="st1" d="M647.8,705.7v0.4c0,0.6,0,1.2,0,1.7c0,0.3,0,0.5,0,0.8c0,1-0.1,1.9-0.2,2.9c0,0.4,0,0.7-0.1,1.1
		s-0.1,0.9-0.1,1.4c-0.1,0.8-0.2,1.6-0.2,2.4l-0.2,1.2c-0.1,0.9-0.2,1.8-0.3,2.7l-0.2,1c-0.1,0.9-0.3,1.8-0.4,2.7
		c-0.1,0.4-0.1,0.8-0.2,1.2c-0.1,0.5-0.2,1.1-0.3,1.7c-0.2,1.1-0.4,2.3-0.6,3.4s-0.4,2-0.6,3c-0.6,3-1.2,6-1.8,8.9
		c-0.2,0.9-0.4,1.9-0.5,2.8l-0.2,0.8c-0.1,0.7-0.3,1.4-0.4,2.1c-0.2,1.1-0.4,2.2-0.6,3.3s-0.4,2.4-0.6,3.6c-0.1,0.5-0.2,1-0.2,1.5
		l-0.2,1.4c0,0.3-0.1,0.7-0.1,1c-0.1,0.7-0.2,1.3-0.3,2l-0.1,0.5l-0.1,0.8l0,0h-0.3l-0.9-0.1c2.8-19.7,5.6-39.5,8.4-59.2l0.6,0
		c0.2,0,0.4,0,0.6,0.1C647.8,703.7,647.8,704.7,647.8,705.7z"/>
	<path class="st1" d="M1557.3,563.8l-1.7,1.2c1.6-1.1,3.3-2.3,5-3.4C1559.5,562.3,1558.3,563.1,1557.3,563.8z M1583.9,542.1
		l-18.8,14.3L1583.9,542.1L1583.9,542.1z M1584.5,542.8L1584.5,542.8C1584.5,542.8,1584.5,542.8,1584.5,542.8l-0.2,0.2L1584.5,542.8
		z M1624,516.3l7-4.4l0,0L1624,516.3z"/>
	<path class="st1" d="M1693.8,479.2c10.5-23.8,40.2-51,64.8-42.8C1749.5,457.1,1721.2,486.7,1693.8,479.2z"/>
	<path class="st1" d="M1613.8,517.6c-3.6-25.2,14.7-54.3,35-58.8C1654.2,477,1634.8,513.2,1613.8,517.6z"/>
	<path class="st1" d="M1563.6,501.9c10.4,23.4-2.5,53.3-19.5,63.8C1533,546.8,1542.9,513.8,1563.6,501.9z"/>
	<path class="st1" d="M1675,495.7c18.4-16,58.3-15.2,75.3-1.8C1736.6,509.1,1693.7,512.3,1675,495.7z"/>
	<path class="st1" d="M1578.6,537.4c-7.4-23.2,11.2-52.9,31.4-59.6C1616.2,497.9,1600.4,528,1578.6,537.4z"/>
	<path class="st1" d="M1574.1,591.4c-9.1,22.5-40.5,37.4-61.5,30.9C1520.3,603.5,1549.3,586,1574.1,591.4z"/>
	<path class="st1" d="M1631.1,512L1631.1,512c-0.3,0.3-0.6,0.7-0.9,1s-0.6,0.7-0.9,1l-0.7,0.7l-0.5,0.5c-0.6,0.5-1.2,1.1-1.7,1.6
		l-0.9,0.8l-1,0.8l-2,1.6l-1,0.8l0,0l-1,0.8l-1.1,0.7l-2.2,1.4l-1.1,0.7l-1.1,0.7l-0.7,0.4l-0.7,0.4c-1,0.6-2.1,1.2-3.2,1.7
		l-1.2,0.6l-1.2,0.6l-1.2,0.6c-0.8,0.4-1.6,0.7-2.4,1.1c-1.6,0.7-3.2,1.4-4.9,2l-1.2,0.5c-0.8,0.3-1.6,0.6-2.5,1l28-17.6L1631.1,512
		z"/>
	<path class="st1" d="M1584.5,542.8l-0.2,0.2c-0.3,0.3-0.6,0.6-0.8,0.8c-0.1,0.1-0.2,0.2-0.2,0.2c0,0,0,0.1-0.1,0.1l-1.3,1.2l-1,0.9
		l-1,0.9l-0.5,0.5l-0.5,0.5l-1.1,0.9l-1.4,1.2l-1.4,1.2c-0.4,0.3-0.8,0.6-1.2,1l-0.7,0.5c-1,0.8-2.1,1.5-3.2,2.3
		c-0.6,0.4-1.2,0.9-1.9,1.3c-0.8,0.6-1.7,1.2-2.5,1.7c-1.1,0.7-2.1,1.5-3.2,2.2l-1.7,1.1c-1.7,1.1-3.3,2.2-5,3.4l-1.7,1.2
		c-0.9,0.6-1.8,1.3-2.6,1.9l-0.1,0.1c-0.5,0.4-1,0.7-1.5,1.1l-1.1,0.8c-0.6,0.4-1.2,0.9-1.7,1.4l-0.6-0.8l18.8-14.3l18.8-14.3l0,0
		c0.2,0.2,0.3,0.4,0.5,0.6l0.1,0.1L1584.5,542.8z"/>
	<path class="st1" d="M938.3,796.5c0.4-0.4,0.7-0.8,1.1-1.2l-11,6.8l10.9-6.8c-0.3,0.3-0.6,0.6-0.9,1L938.3,796.5z M936.4,798.4
		l-0.3,0.3L936.4,798.4c0.1-0.1,0.1-0.1,0.2-0.2L936.4,798.4z M937.5,797.3l-0.1,0.1L937.5,797.3L937.5,797.3z M934,800.7l-0.6,0.5
		c0.3-0.2,0.6-0.5,0.9-0.8L934,800.7z M924.5,807.6l-1.1,0.7C923.8,808,924.2,807.8,924.5,807.6L924.5,807.6z M922.4,808.8
		c-0.8,0.4-1.5,0.9-2.3,1.3l-0.3,0.2c1-0.6,2.1-1.1,3.1-1.7L922.4,808.8z M892.8,826.2c-0.2-0.2-0.4-0.5-0.7-0.8l-9.4,7.2l9.4-7.2
		C892.4,825.7,892.6,825.9,892.8,826.2c-0.2,0.2-0.4,0.4-0.5,0.5C892.5,826.6,892.7,826.4,892.8,826.2z M875.6,840.4l-1.1,0.8
		c0.7-0.5,1.5-1,2.2-1.5L875.6,840.4z M881.5,836.1l0.6-0.5l0.2-0.2L881.5,836.1z M877.8,838.8l-1.1,0.8c0.6-0.4,1.1-0.8,1.7-1.2
		L877.8,838.8z M873.3,842l-3.4,2.3c1.5-1,3.1-2.1,4.6-3.1L873.3,842z M854.6,854.1L854.6,854.1l18.8-14.3L854.6,854.1z"/>
	<path class="st1" d="M1002.2,762.5c10.5-23.8,40.2-51,64.7-42.8C1057.8,740.5,1029.6,770.1,1002.2,762.5z"/>
	<path class="st1" d="M922.1,801c-3.6-25.2,14.7-54.3,35-58.8C962.5,760.4,943.1,796.5,922.1,801z"/>
	<path class="st1" d="M871.9,785.2c10.4,23.4-2.5,53.3-19.5,63.8C841.3,830.1,851.2,797.1,871.9,785.2z"/>
	<path class="st1" d="M983.3,779.1c18.4-16,58.3-15.2,75.3-1.8C1044.9,792.5,1002,795.7,983.3,779.1z"/>
	<path class="st1" d="M887,820.8c-7.4-23.2,11.2-52.9,31.4-59.6C924.5,781.3,908.8,811.4,887,820.8z"/>
	<path class="st1" d="M882.4,874.8c-9,22.5-40.5,37.4-61.5,30.9C828.6,886.8,857.7,869.4,882.4,874.8z"/>
	<path class="st1" d="M939.4,795.3c-0.4,0.4-0.7,0.8-1.1,1.2c0,0,0,0,0,0.1l-0.5,0.5l-0.1,0.1l-0.1,0.1l0,0l-0.2,0.2l-0.2,0.2
		l-0.6,0.6c-0.1,0.1-0.2,0.2-0.3,0.3l-0.3,0.2l-0.3,0.3l-0.8,0.7c-0.3,0.2-0.5,0.5-0.8,0.7s-0.6,0.5-0.9,0.8s-0.4,0.3-0.6,0.5
		l-0.3,0.3l-0.3,0.2l-0.7,0.5c-0.5,0.4-0.9,0.7-1.4,1.1l-0.7,0.5c-0.5,0.3-0.9,0.7-1.4,1c-0.2,0.1-0.4,0.3-0.6,0.4l-1.1,0.8
		c-0.4,0.3-0.8,0.5-1.2,0.7l-0.5,0.3c-0.4,0.2-0.8,0.5-1.2,0.7c-0.2,0.1-0.3,0.2-0.5,0.3c-1,0.6-2.1,1.2-3.1,1.7l-0.3,0.2
		c-0.2,0.1-0.3,0.2-0.5,0.2l-0.6,0.3c-1.9,1-3.8,1.9-5.7,2.7l-1.2,0.5l-1.5,0.6l-1.5,0.6c-0.5,0.2-1,0.4-1.4,0.6l-1.2,0.5l-1.8,0.7
		l24.2-15L939.4,795.3z"/>
	<path class="st1" d="M892.8,826.2c-0.2,0.2-0.3,0.4-0.5,0.5l-0.5,0.5l-1,1l-0.3,0.3l0,0c-0.9,0.8-1.8,1.7-2.7,2.5
		c-0.5,0.4-0.9,0.8-1.4,1.2l-1.9,1.5l-0.7,0.6l-0.7,0.5l-0.4,0.3l-0.3,0.3l-0.2,0.2l-0.6,0.5c-0.3,0.2-0.5,0.4-0.8,0.6l-0.6,0.4
		c-0.6,0.4-1.1,0.8-1.7,1.2s-1.1,0.8-1.7,1.2c-0.7,0.5-1.5,1-2.2,1.5h-0.1c-1.5,1.1-3.1,2.1-4.6,3.1l-3,2l-2.1,1.5l0,0L863,849
		c-0.6,0.4-1.3,0.9-1.9,1.3s-1,0.7-1.5,1.1l-1.1,0.8c-0.7,0.5-1.4,1.1-2.1,1.6c0,0-0.1,0-0.1,0l-1.1,0.9l-0.6-0.7l0,0l18.8-14.3
		l9.4-7.2l9.4-7.2C892.4,825.7,892.6,826,892.8,826.2z"/>
	<line class="st2" x1="345.3" y1="680.3" x2="340.2" y2="639.7"/>
	<path class="st1" d="M1923.2,361.7c-22,7-36.3,21.6-45.7,42c-4.7-63.7-15.8-126.2-38.9-187.3c2.3,3.1,4,5.5,5.8,8
		c19.2-18.9,21.7-61.8-1.2-86.3c-2.6,4.5-5.5,8.6-7.5,13.2c-6.7,15.3-8.2,31.2-3.8,47.3c3.2,11.4,7.5,22.5,11.3,33.7
		c0.9,2.6,1.7,5.3,2.6,8c-11.5-23.6-29.2-39.1-56-43.9c0.7,14.5,5.9,26.6,14.5,37.3c10.5,13,23.8,21.6,40.5,24.7
		c1.5,0.4,2.7,1.4,3.3,2.7c1.8,6.9,3,14,3.8,21.1c-0.7-2.5-1.4-5.1-2.1-7.7c-0.3,0-0.7,0.1-1,0.1c0,0.7-0.1,1.4-0.2,2.9
		c-8.4-10.1-18-17.8-30.5-22.1c-1.9,11.2-0.6,22.7,3.7,33.2c6.5,16.2,17.2,28.7,32.8,36.9c1.2,0.6,2.3,2.6,2.5,4.2
		c1,6.2,1.7,12.4,2.4,17.9c-4.9-6.4-9.8-13.5-15.5-20c-5.7-6.5-13.1-11.1-22.4-14.7c-0.1,6.7-1,12.9-0.1,18.8
		c3.7,25.8,16.7,45,41,55.8c1.1,0.5,1.9,1.5,2.1,2.7c1.1,28.5,0,56.8-11.5,83.3c-6.3,14.6-15.6,27.2-26.8,38.6
		c0,0,12.9-5.1,27.5-13.3c3.8-6.6,7.1-13.4,9.8-20.5c1-2.5,2.2-3.4,4.8-4c27.8-5.9,50.5-31.9,52.4-58.5c-19,1.6-33.8,11-46.8,25.1
		c0.6-5.3,1-9.9,1.8-14.4c0.2-1,2.1-2.1,3.4-2.5c20.6-6.1,35.1-18.2,43.8-36.1c2-4.1,3.6-8.3,4.9-12.7c1.4-4.7,1.7-9.8,2.5-15.4
		C1928.1,360.2,1925.6,360.9,1923.2,361.7z M1862,301.4c-0.3-0.7-0.7-1.4-1-2.1c-0.3-0.7-0.6-1.3-0.9-2c-0.4-0.9-0.8-1.8-1.2-2.8
		c-0.2-0.5-0.4-0.9-0.6-1.4c-0.2-0.5-0.4-0.9-0.6-1.4l-0.6-1.4c-0.2-0.5-0.4-0.9-0.5-1.4c-0.1-0.2-0.2-0.5-0.3-0.7
		c-0.2-0.5-0.3-0.9-0.5-1.4c-0.1-0.2-0.2-0.5-0.2-0.7c-0.3-0.9-0.7-1.9-1-2.8c-0.1-0.2-0.1-0.4-0.2-0.6c0-0.1-0.1-0.2-0.1-0.3
		c-0.1-0.2-0.1-0.4-0.2-0.6c-0.1-0.5-0.2-0.7-0.3-1.1c-0.1-0.4-0.2-0.7-0.3-1c-0.1-0.2-0.1-0.3-0.2-0.5c0-0.2-0.1-0.3-0.1-0.5
		c-0.1-0.3-0.2-0.7-0.3-1.1c-0.1-0.4-0.3-1-0.4-1.4c-0.1-0.2-0.1-0.4-0.2-0.6c0-0.2-0.1-0.3-0.1-0.5c-0.1-0.4-0.2-1-0.3-1.4
		c-0.1-0.5-0.2-1.2-0.4-1.7c-0.1-0.2-0.1-0.5-0.2-0.7c-0.1-0.5-0.2-0.9-0.3-1.3c0-0.3-0.1-0.5-0.2-0.8c0-0.2-0.1-0.4-0.1-0.7
		c0-0.3-0.1-0.5-0.1-0.8c-0.1-0.9-0.3-1.8-0.4-2.7l-0.1-0.7c0-0.3-0.1-0.5-0.1-0.8l-0.1-0.6c0-0.4-0.1-0.8-0.1-1.2s-0.1-1-0.1-1.5
		s-0.1-1-0.1-1.4v-1.5c0-2,0-4,0.1-6c0,0,0,0.1,0,0.1c0.7,2.7,1.3,5.4,2,8.1c1.5,6.2,3,12.5,4.5,18.7c0.2,0.7,0.3,1.4,0.5,2.1
		c0,0,0,0.1,0,0.2c0.1,0.5,0.2,0.9,0.3,1.4c0.1,0.3,0.1,0.6,0.2,0.9c1.5,6.2,3,12.5,4.5,18.7L1862,301.4z M1873.2,377.5l-1.2,0.2h0
		v0c-0.5-4.7-1.2-9.4-2.1-14c-0.4-2.3-0.9-4.7-1.3-7c0,0,0,0,0,0c-0.2-1.2-0.5-2.3-0.7-3.5c0,0,0,0,0,0c-0.2-0.8-0.3-1.7-0.5-2.5
		c-0.1-0.3-0.1-0.6-0.2-1c-0.3-1.7-0.6-3.3-0.9-5c-0.1-0.7-0.2-1.4-0.4-2.1c-0.2-1-0.3-2-0.5-2.9c-0.2-1.2-0.3-2.3-0.5-3.5l-0.2-1.7
		c-0.1-1.2-0.3-2.4-0.4-3.5c-0.1-0.5-0.1-1-0.1-1.5c-0.1-1.1-0.1-2.1-0.2-3.2v-6.9c0,0,0,0,0,0h0.3l0.6-0.1h0.3
		c1.3,9.7,2.6,19.4,3.9,29.1c0.5,3.7,1,7.4,1.5,11.1l0.2,1.4c0.1,0.7,0.2,1.4,0.3,2.1c0.1,0.4,0.1,0.8,0.2,1.2
		c0.1,0.5,0.1,1,0.2,1.5C1872.2,369.6,1872.7,373.6,1873.2,377.5L1873.2,377.5z M1647.2,502.1c2.4-0.4,8.4-4.2,11.4-4.7
		c-47.6,22.2-90.7,52.5-129.6,85.8c7.1-18.1,6.8-35.6-4.4-52.6c-2.7,3.6-5.5,6.6-7.4,10c-10,18-10.5,35.7-0.8,53.1
		c0.5,0.9,0.9,2.5,0.4,3.2c-2.1,3-4.5,5.8-7.2,9.1c0.9-14.8-2-27.8-11.6-38.7c-14.1,16-16.3,42.6-4.3,60.5c1.1,1.3,1.3,3.3,0.4,4.8
		c-5.8,12.3-9.3,25.2-9.4,38.5c-0.1,3.3,0.1,6.6,0.4,9.9l0,0l0.1,0l10.3-10.5c0.2-12,2.6-23.9,7.1-35c8.7-21,24.2-37.5,41.1-52.9
		c0.8-0.5,1.8-0.7,2.7-0.4c19.6,6.7,37.8,2.7,54.5-9.9c3.8-2.9,6.9-6.8,10.6-10.6c-7.2-2.8-13.9-4.1-20.8-3.5
		c-6.9,0.7-13.7,2.1-20,3.1c3.5-2.7,7.4-5.9,11.5-8.8c1.1-0.8,2.4-1.2,3.8-1c13.3,3.6,26.4,2.2,39.2-3.5c8.4-3.6,15.6-9.4,21-16.7
		c-9.3-4.2-19.1-4.8-29.5-3.6c-1.5,0.1-3,0.4-4.4,0.9c4.5-3.6,9.2-6.9,14.1-9.9c1.1-0.5,2.3-0.4,3.3,0.2c11,7,23.2,9.2,36.5,7.4
		c10.9-1.3,21.2-6,29.3-13.3c-17.6-11.4-36.2-11.9-56.1-4.7c2-1,5.2-2.2,7.2-3.3c8.5-4.3,16-8.2,24.2-12.9
		c11.3-6.4,20.1-16.5,24.9-28.6c1.5-3.6,0.6-13.7,1.7-17.6C1671.1,447.3,1647.4,481.4,1647.2,502.1z M1546.8,571.5
		c-0.2-0.2-0.4-0.5-0.6-0.7h0l18.8-14.3l18.8-14.3l0,0l0,0c0.2,0.2,0.3,0.4,0.5,0.5l0.1,0.1l0.1,0.1l-0.2,0.2
		c-0.3,0.3-0.6,0.6-0.8,0.9c-0.1,0.1-0.2,0.2-0.2,0.2c0,0,0,0.1-0.1,0.1l-1.3,1.2c-0.3,0.3-0.7,0.6-1,0.9c-0.3,0.3-0.7,0.6-1,0.9
		l-0.5,0.5l-0.5,0.5c-0.4,0.3-0.7,0.6-1.1,0.9c-0.4,0.3-1,0.8-1.4,1.2c-0.4,0.4-1,0.8-1.5,1.2s-0.8,0.6-1.2,0.9l-0.7,0.5
		c-1,0.8-2.1,1.5-3.2,2.3c-0.6,0.4-1.2,0.9-1.9,1.3c-0.8,0.6-1.7,1.2-2.5,1.7c-1.1,0.7-2.1,1.5-3.2,2.2l-1.6,1.1
		c-0.5,0.3-1,0.6-1.4,1c-0.7,0.5-1.4,0.9-2,1.4c-0.5,0.3-1,0.7-1.5,1l-1.7,1.2c-0.9,0.6-1.8,1.3-2.6,1.9l-0.1,0.1
		c-0.5,0.4-1,0.7-1.5,1.1l-1.1,0.8C1548,570.5,1547.4,571,1546.8,571.5C1546.9,571.5,1546.9,571.5,1546.8,571.5z M1624,516.3l7-4.3
		c0,0-0.1,0.1-0.1,0.1c-0.2,0.3-0.5,0.5-0.8,0.8c-0.3,0.4-0.6,0.7-0.9,1l-0.7,0.7l-0.5,0.5c-0.6,0.5-1.1,1.1-1.7,1.6
		c-0.3,0.3-0.6,0.5-0.9,0.8l-1,0.8l-2,1.6l-1,0.8c-0.4,0.2-0.7,0.5-1,0.8l-1.1,0.7c-0.7,0.5-1.4,1-2.2,1.4c-0.4,0.2-0.7,0.5-1.1,0.7
		c-0.4,0.2-0.7,0.5-1.1,0.7l-0.7,0.4l-0.7,0.4c-1,0.6-2.1,1.2-3.2,1.7l-1.2,0.6l-1.2,0.6l-1.2,0.6c-0.8,0.4-1.6,0.7-2.4,1.1
		c-1.6,0.7-3.2,1.4-4.9,2c-0.4,0.2-0.8,0.3-1.2,0.5c-0.7,0.3-1.4,0.5-2.1,0.9c-0.1,0-0.2,0.1-0.3,0.1L1624,516.3z M1344.1,784.8
		c-3.3-45-11.2-89.2-27.5-132.3c1.6,2.2,2.8,3.9,4.1,5.7c13.5-13.3,15.3-43.7-0.8-60.9c-1.9,3-3.7,6.1-5.3,9.3
		c-4.8,10.5-5.8,22.3-2.7,33.4c2.2,8.1,5.3,15.9,8,23.8c0.6,1.9,1.2,3.8,1.8,5.7c-8.2-16.7-20.6-27.7-39.5-31
		c0.4,9.7,4.1,18.9,10.3,26.3c7.4,9.2,16.8,15.2,28.6,17.4c1,0.2,1.9,1,2.3,1.9c1.2,4.9,2.1,9.9,2.7,14.9c-0.5-1.8-1-3.6-1.5-5.4
		l-0.7,0.1c0,0.5-0.1,1-0.2,2c-6-7.1-12.7-12.6-21.5-15.6c-1.4,7.9-0.4,16,2.6,23.5c4.6,11.4,12.1,20.3,23.2,26
		c1,0.7,1.6,1.8,1.8,2.9c0.7,4.4,1.2,8.8,1.7,12.6c-3.5-4.5-6.9-9.6-11-14.1c-4.1-4.6-9.2-7.8-15.8-10.4c-0.1,4.7-0.7,9.1-0.1,13.3
		c2.6,18.2,11.8,31.8,28.9,39.4c0.8,0.4,1.3,1.1,1.5,1.9c0.8,20.1,0,40.1-8.2,58.8c-5.3,12.2-13.6,22.6-23.5,31.6
		c-1.7,1.6-3.5,3-5.4,4.3c0,0,0,0,0,0c0.8-0.4,13.1-6.2,27.4-14.8c3.6-5.6,6.7-11.6,9-17.8c0.5-1.5,1.8-2.7,3.4-2.8
		c19.6-4.1,35.6-22.5,37-41.3c-13.4,1.2-23.9,7.8-33.1,17.8c0.5-3.8,0.7-7,1.3-10.2c0.1-0.7,1.5-1.5,2.4-1.8
		c17.8-5.2,29.1-16.9,34.4-34.5c1-3.3,1.1-6.9,1.8-10.9C1363.1,757.9,1351.4,768.9,1344.1,784.8z M1332.2,710.7
		c-0.2-0.5-0.4-1-0.6-1.5c-0.2-0.4-0.5-1.1-0.7-1.7c-0.2-0.6-0.5-1.1-0.7-1.7c-0.3-0.6-0.5-1.3-0.8-2s-0.5-1.3-0.7-2s-0.5-1.3-0.7-2
		c-0.9-2.6-1.6-5.3-2.2-8c-0.2-1-0.4-2-0.5-3.1c-0.1-0.7-0.2-1.4-0.3-2.1l-0.1-0.9c-0.3-2.9-0.4-5.8-0.2-8.7c0,0,0,0.1,0,0.1
		c1,4.3,2.1,8.6,3.1,12.9l5.4,22.3L1332.2,710.7z M1340.6,766.4l-0.5,0.1h0v0h0c0-0.3-0.1-0.7-0.1-1c0,0,0-0.1,0-0.1c0,0,0,0,0,0
		c0-0.4-0.1-0.8-0.1-1.2c-0.1-0.8-0.2-1.6-0.3-2.5c-0.1-0.5-0.1-0.9-0.2-1.4c-0.3-1.7-0.6-3.3-0.9-5l-0.4-2.2c-0.4-2-0.8-4-1.2-6.1
		c-0.1-0.6-0.2-1.2-0.3-1.8c-0.1-0.6-0.2-1.2-0.3-1.8c-0.2-0.8-0.3-1.6-0.4-2.4c-0.2-1.6-0.5-3.1-0.6-4.7l0,0l-0.1-0.5v-0.2
		c0-0.4-0.1-0.8-0.1-1.2V734c0-0.3-0.1-0.6-0.1-0.8c0-0.3-0.1-0.8-0.1-1.2c0-0.4-0.1-0.8-0.1-1.2c0-0.7-0.1-1.4-0.1-2.1v-3.4h0.3
		l0.6-0.1c1.7,12.5,3.4,25,5.1,37.5c0.2,1.2,0.3,2.4,0.5,3.6c0,0,0,0,0,0H1340.6z M1162.9,895.5c-1.6-0.3-2.8-1.5-3.1-3.1
		c-6-19.1-25.8-33.4-44.6-33c2.4,13.3,10,23,20.8,31.3c-3.8-0.1-7,0-10.2-0.3c-0.8-0.1-1.7-1.3-2-2.2c-6.9-17.2-19.5-27.4-37.5-31
		c-3.4-0.7-7-0.5-11-0.8c5.9,18.1,17.9,28.7,34.4,34.5c-44.4,7.5-87.6,19.5-129,39.8c2-1.8,3.6-3.2,5.2-4.6
		c-14.5-12.2-44.8-11.2-60.5,6.6c3.4,1.5,6.5,3.3,9.7,4.4c10.9,3.8,22.7,3.6,33.5-0.5c7.8-3,15.3-6.8,22.9-10.2
		c1.8-0.8,3.6-1.6,5.4-2.3c-15.8,9.7-25.6,23.1-27.2,42.3c9.6-1.4,18.5-5.8,25.2-12.7c8.4-8.3,13.6-18.2,14.6-30.1
		c0.2-1,0.8-1.9,1.7-2.5c4.8-1.7,9.6-3.1,14.6-4.1l-5.3,2c0.1,0.2,0.1,0.4,0.2,0.6h2.1c-6.5,6.6-11.3,13.8-13.5,22.9
		c8,0.6,16-1,23.1-4.8c10.9-5.7,19-14,23.7-25.6c0.6-1,1.6-1.7,2.8-2c4.3-1.1,8.6-2,12.4-2.9c-4.2,3.9-8.8,7.8-13,12.2
		s-6.9,10-8.8,16.7c4.7-0.4,9.1-0.1,13.2-1.1c17.9-4.3,30.5-14.7,36.5-32.5c0.3-0.8,1-1.4,1.8-1.7c19.9-2.7,39.9-3.8,59.3,2.6
		c9.8,3.3,18.9,8.3,27,14.8l0.2-0.1c0.1,0,0.1,0,0.2-0.1l0.3-0.1c0,0,0.1,0,0.1,0l0.4-0.1c0,0,0.1,0,0.1,0l1.1-0.4l0.7-0.3l6.3-2.5
		l0.9-0.3c-0.8-0.7-1.7-1.5-2.5-2.2C1185.6,904.2,1174.7,898.6,1162.9,895.5z M1037.3,909.4c-0.8,0.5-1.5,0.9-2.3,1.3
		c-0.3,0.2-0.7,0.4-1.1,0.6l-1.1,0.6c-0.3,0.2-0.7,0.4-1,0.5l-0.6,0.3l-0.7,0.4l-1.1,0.6c-0.4,0.2-0.8,0.4-1.1,0.5l-0.8,0.4
		l-0.8,0.3l-1,0.5c-0.7,0.3-1.4,0.6-2.1,0.9l-0.6,0.2l-0.1,0c0,0,0,0,0,0c-0.2,0.1-0.5,0.2-0.7,0.2l-0.1,0l-0.6,0.2l-1.1,0.4
		c-0.3,0.1-0.5,0.2-0.8,0.3c-0.5,0.1-0.9,0.3-1.4,0.4c-0.5,0.2-1.1,0.3-1.6,0.5c-0.6,0.2-1.2,0.3-1.9,0.4c-0.3,0.1-0.6,0.1-0.9,0.2
		c-0.3,0.1-0.6,0.1-0.9,0.2c-0.2,0-0.4,0.1-0.6,0.1l-0.1,0l-0.7,0.1c-0.3,0-0.5,0.1-0.8,0.1c-0.4,0.1-0.9,0.1-1.3,0.2c0,0,0,0,0,0
		c-0.5,0.1-1,0.1-1.6,0.2h0c-0.3,0-0.7,0.1-1.1,0.1h-2l17.2-5.9l17.2-5.9c0,0,0,0,0,0c0,0,0,0,0,0c-0.2,0.1-0.3,0.2-0.4,0.3
		l-0.4,0.2C1037.9,909.1,1037.6,909.2,1037.3,909.4z M1092,896.4l-0.2,0h0l-0.2,0.1l-1.4,0.3c-1.6,0.3-3.2,0.7-4.7,1.1
		c-1,0.3-2.2,0.6-3.3,0.9c-0.6,0.2-1.1,0.3-1.7,0.5l-5.2,1.5c-0.6,0.2-1.2,0.4-1.9,0.5c-1.6,0.5-3.3,1-4.9,1.4c0,0,0,0,0,0
		c-0.4,0.1-0.9,0.2-1.4,0.4c-0.5,0.1-0.7,0.2-1,0.3c-0.3,0.1-0.7,0.2-1,0.2l-1,0.2l-1,0.2l-1,0.2c-0.3,0.1-0.7,0.1-1,0.2
		c-0.3,0.1-0.7,0.2-1,0.2l-1,0.2c-1.1,0.2-2.2,0.4-3.3,0.5c-0.3,0-0.6,0.1-0.9,0.1c-0.3,0-0.6,0.1-0.9,0.1l-0.5,0.1l-0.8,0.1h-0.2
		l-1,0.1c-0.1-0.3-0.1-0.6-0.2-0.9l40.4-9.4c0.1,0.2,0.1,0.5,0.2,0.7V896.4z M899.2,841.4c-6.9,0.7-13.7,2.1-20,3.1
		c3.5-2.7,7.5-5.9,11.5-8.8c1.1-0.8,2.4-1.2,3.8-1c13.3,3.6,26.4,2.2,39.2-3.5c8.4-3.6,15.6-9.4,21-16.7c-9.3-4.2-19-4.8-29.4-3.6
		c-1.5,0.1-3,0.5-4.5,0.9c4.5-3.6,9.2-6.9,14.1-9.9c1.1-0.5,2.3-0.4,3.3,0.2c11,7,23.2,9.1,36.5,7.4c10.9-1.4,21.1-6,29.3-13.5
		c-17.6-11.4-36.2-11.9-56.1-4.7c2-1,5.3-2.3,7.2-3.3c8.5-4.3,16-8.2,24.2-12.9c11.3-6.4,20.1-16.5,24.9-28.6
		c1.5-3.6,0.6-13.7,1.7-17.6c-26.6,1.8-50.3,35.8-50.5,56.5c2.4-0.4,8.4-4.2,11.4-4.7c-47.6,22.2-90.7,52.5-129.6,85.8
		c7.1-18.1,6.8-35.6-4.4-52.7c-2.7,3.6-5.5,6.6-7.4,10c-10,18-10.5,35.7-0.8,53.1c0.5,0.9,0.9,2.5,0.4,3.2c-2.1,3-4.5,5.8-7.2,9.1
		c0.9-14.8-2-27.8-11.6-38.8c-14.1,16-16.3,42.6-4.3,60.5c1.1,1.3,1.3,3.3,0.4,4.8c-5.8,12.3-9.3,25.2-9.4,38.5c0,1.9,0,3.8,0.1,5.6
		l0,0c0,0,0,0,0,0l0.1,0c0.7,0.3,4.8,2.1,10.9,4.3c-0.1-1-0.2-1.9-0.2-2.9c-0.5-14.6,1.4-29,7.1-42.7c8.7-21,24.2-37.5,41.1-52.9
		c0.8-0.5,1.8-0.7,2.7-0.4c19.6,6.7,37.8,2.7,54.5-9.9c3.8-2.9,6.9-6.8,10.6-10.7C912.8,842,906.1,840.7,899.2,841.4z M904.3,817.2
		l4-2.5l20.1-12.5l10.9-6.8l0.1,0c-0.2,0.3-0.5,0.5-0.7,0.8c0,0,0,0,0,0c-0.1,0.1-0.2,0.3-0.4,0.4c0,0,0,0,0,0.1s-0.3,0.3-0.4,0.5
		l-0.1,0.1c-0.4,0.4-0.7,0.7-1.1,1.1c-0.1,0.1-0.2,0.2-0.3,0.3l-0.3,0.2l-0.3,0.3l-0.8,0.7c-0.3,0.2-0.5,0.5-0.8,0.7
		c-0.3,0.2-0.6,0.5-0.9,0.8s-0.4,0.3-0.6,0.5l-0.3,0.3l-0.3,0.2c-0.2,0.2-0.4,0.4-0.7,0.5c-0.2,0.2-0.4,0.4-0.7,0.5
		c-0.2,0.2-0.5,0.4-0.8,0.6l-0.7,0.5c-0.5,0.3-0.9,0.7-1.4,1c-0.2,0.1-0.4,0.3-0.6,0.4c-0.4,0.3-0.7,0.5-1.1,0.8
		c-0.2,0.1-0.4,0.2-0.5,0.3c0,0,0,0,0,0c-0.2,0.1-0.4,0.2-0.6,0.4l-0.5,0.3c-0.4,0.2-0.8,0.5-1.2,0.7c-0.2,0.1-0.3,0.2-0.5,0.3
		c-1,0.6-2.1,1.2-3.1,1.7l-0.3,0.2c-0.1,0.1-0.3,0.2-0.5,0.2l-0.6,0.3c-1.9,1-3.8,1.9-5.7,2.7c-0.4,0.2-0.8,0.4-1.2,0.5l-1.5,0.6
		l-1.5,0.6c-0.5,0.2-1,0.4-1.4,0.6l-1.2,0.5L904.3,817.2L904.3,817.2z M877.8,838.8c-0.1,0.1-0.2,0.1-0.3,0.2
		c-0.3,0.2-0.5,0.4-0.8,0.5c-0.4,0.3-0.7,0.5-1.1,0.8c0,0-0.1,0-0.1,0.1c-0.3,0.2-0.7,0.5-1,0.7h-0.1c-1.5,1.1-3.1,2.1-4.6,3.1l-3,2
		l-2.1,1.5L863,849c-0.6,0.4-1.2,0.9-1.9,1.3c-0.4,0.3-0.7,0.5-1,0.7c-0.1,0.1-0.2,0.2-0.3,0.2c-0.1,0-0.1,0.1-0.2,0.1l-1.1,0.8
		l-1.1,0.8l-1,0.8c0,0,0,0-0.1,0h0l-1.1,0.9l0,0l-0.3-0.4c-0.1-0.1-0.2-0.2-0.3-0.4h0l18.8-14.3l9.4-7.2l9.4-7.2v0h0
		c0.1,0.1,0.2,0.2,0.2,0.3c0.1,0.1,0.2,0.2,0.3,0.4c0,0,0.1,0.1,0.1,0.1c-0.2,0.2-0.3,0.4-0.5,0.5s-0.3,0.4-0.5,0.5l-1,1l-0.3,0.3
		c-0.6,0.6-1.2,1.2-1.9,1.7l-0.9,0.8c-0.5,0.4-0.9,0.8-1.4,1.2c-0.6,0.5-1.2,1-1.9,1.5l-0.7,0.6c-0.5,0.4-1,0.8-1.5,1.1
		c-0.1,0.1-0.2,0.1-0.2,0.2l-0.6,0.5c-0.3,0.2-0.6,0.4-0.8,0.6l-0.6,0.4c-0.6,0.4-1.1,0.8-1.7,1.2
		C878.2,838.5,878,838.6,877.8,838.8z M666.3,622.5c0.9-2.7,2.7-6.7,3.6-9.4c3.8-11.5,7.1-21.5,10.4-33.1c4.5-15.8,3.4-32.7-3-47.8
		c-1.8-4.5-11.6-12.8-14.1-17.4c-22.4,25.2-13.5,77,4.7,95.7c1.8-2.5,3.9-11.2,6.1-14.4C651,658.2,639,723.8,633.6,788.4
		c-9.7-22.6-25.5-38-50.7-43.5c0.8,5.7,0.9,10.8,2.2,15.5c6.9,25.1,22.2,41.5,46.3,48.5c1.3,0.3,3.1,1.4,3.2,2.5
		c0.8,4.5,1.1,9.2,1.6,14.6c-12.4-14-26.5-23.2-44.8-24.5c1.5,26.9,23,52.8,49.7,58.2c2.6,0.5,3.7,1.5,4.6,3.9
		c2.3,6.5,5,12.9,8.3,19l0,0l33.3,20.7c-13.4-12.7-24.5-27.3-31.5-44.7c-10.7-26.6-11.5-55.3-10-84.1c0.3-1.2,1-2.2,2.1-2.8
		c23.6-11.4,36.4-31.1,40.3-57.3c0.9-6,0.1-12.3,0.1-19c-9,3.9-16.2,8.6-21.8,15.3c-5.6,6.7-10.4,14-15.2,20.6
		c0.8-5.6,1.5-11.9,2.6-18.2c0.3-1.5,1.3-3.6,2.5-4.2c15.2-8.6,25.7-21.5,32.2-38c4.3-10.7,5.8-22.3,4-33.7
		c-12.1,4.5-21.4,12.6-29.7,22.9c-1.1,1.3-1.1,1.3-3.2,4.8c0.8-7.2,2.1-14.4,3.9-21.4c0.6-1.4,1.7-2.4,3.2-2.8
		c16.1-3.5,29-12.4,39.4-25.8c8.7-10.9,13.7-24.1,14.5-38C695,582.2,677.8,598.3,666.3,622.5z M647.8,708.7c0,1-0.1,1.9-0.2,2.9
		c0,0.4,0,0.7-0.1,1.1c-0.1,0.4-0.1,0.9-0.1,1.4c-0.1,0.8-0.2,1.6-0.2,2.4c0,0.4-0.1,0.8-0.1,1.2c-0.1,0.9-0.2,1.8-0.4,2.7l-0.1,1
		c-0.1,0.9-0.3,1.8-0.4,2.7c-0.1,0.4-0.1,0.8-0.2,1.2c-0.1,0.5-0.2,1.1-0.3,1.7c0,0.1-0.1,0.2-0.1,0.3c-0.2,1-0.4,2-0.6,3
		c-0.2,1-0.4,2-0.6,3c-0.6,3-1.2,6-1.8,8.9c-0.2,0.9-0.4,1.9-0.5,2.8l-0.2,0.8c-0.1,0.7-0.3,1.4-0.4,2.1c-0.2,1.1-0.4,2.2-0.6,3.3
		s-0.4,2.4-0.6,3.6c-0.1,0.5-0.2,1-0.2,1.5l-0.2,1.4c-0.1,0.3-0.1,0.7-0.1,1c-0.1,0.7-0.2,1.4-0.3,2l-0.1,0.5l-0.1,0.8v0H639
		l-0.9-0.1c2.8-19.7,5.6-39.5,8.4-59.2l0.1,0l0.5,0.1c0.2,0,0.4,0,0.6,0.1V708.7z M651.4,678.3c3.6-14.9,7.2-29.8,10.8-44.7v6.9
		l-0.1,1.1c0,0.4,0,0.7-0.1,1.1s0,0.6-0.1,0.9c-0.1,0.9-0.2,1.8-0.3,2.7c0,0.4-0.1,0.9-0.2,1.3c0,0.2-0.1,0.5-0.1,0.8
		c0,0.2,0,0.2,0,0.4c-0.1,0.5-0.2,1-0.2,1.5s-0.1,0.9-0.2,1.4c-0.2,1.2-0.5,2.5-0.7,3.7c-0.1,0.4-0.2,0.9-0.3,1.3
		c-0.1,0.6-0.3,1.2-0.4,1.8c-0.2,0.6-0.3,1.2-0.5,1.8c-0.2,0.6-0.2,0.9-0.4,1.4c-0.1,0.5-0.3,0.9-0.4,1.4c-0.1,0.5-0.3,0.9-0.4,1.4
		c-0.2,0.7-0.5,1.4-0.7,2.1l-0.4,1.1c-0.2,0.6-0.4,1.1-0.6,1.7s-0.4,1.1-0.6,1.7c-0.2,0.5-0.4,1.1-0.6,1.7l-0.5,1.2
		c-0.3,0.7-0.6,1.4-0.9,2.2l-0.9,2.2l-0.7,1.6c-0.3,0.7-0.6,1.3-0.9,2c-0.4,0.9-0.8,1.7-1.2,2.5c0,0.1-0.1,0.2-0.1,0.3
		C650.4,682.5,650.9,680.4,651.4,678.3z M538.3,743.8c-1.3-2.5-1.2-4.2,0.3-6.7c15.2-26.4,10.7-63.2-9.2-83.8
		c-12.3,16.4-15.4,34.9-13.4,55.4c-3.8-4.3-7.2-7.9-10.2-11.8c-0.7-0.9-0.2-3.2,0.4-4.5c12.1-25.4,10.5-50.1-4-73.9
		c-2.7-4.5-6.6-8.3-10.5-13.1c-14.1,25.2-13.5,49.6-3,74c-54.2-41.9-112.1-77.8-177.3-103.1l10.5,1.1c-1.4-28.9-33.8-61.6-69.7-60.8
		c1.7,5.3,2.9,10.6,5.1,15.4c7.4,16.3,19,29,35.1,36.9c11.4,5.6,23.3,10.1,35,15.1c2.8,1.2,5.5,2.4,8.2,3.7
		c-27.1-7.7-52.2-4.7-75.2,13.3c12.1,9.9,25.5,14.4,40.2,15.1c17.9,0.9,34.3-3.6,48.6-14.7c1.3-0.9,3-1.1,4.5-0.6
		c6.8,3.5,13.3,7.6,19.5,12.1c-2.5-1.3-5.1-2.6-7.6-3.8l-0.6,0.8c0.5,0.5,1,1.1,2.1,2.2c-14-0.5-27.1,1.6-39.4,8.5
		c7.5,9.5,17.6,16.8,29,20.8c17.6,6.4,35.2,6.8,53,0.2c1.4-0.5,3.7,0.1,5.1,1c5.7,3.6,11.1,7.5,16,10.9c-8.6-0.7-17.8-1.9-27.1-1.9
		c-9.2-0.1-18.2,2.6-27.8,7.4c5.2,4.8,9.5,10,14.9,13.6c23.2,15.5,47.9,18.9,73.9,7.3c1.2-0.5,2.6-0.4,3.7,0.2
		c23.5,19.5,45.3,40.7,58.2,68.9c6.4,14,9.8,28.8,11.2,44.1l0.6,0.5c1.7,1.4,6.8,5.8,14.5,12c0.1-3,0-6-0.2-9
		C552.2,777.7,546.8,760.3,538.3,743.8z M392.7,617.4L392.7,617.4l-2.1-0.7l-1.2-0.4l-1.8-0.6c-1.1-0.4-2.2-0.8-3.3-1.2l-1.2-0.5
		l-1.2-0.5l-1.1-0.4l-1.3-0.5c-1.1-0.4-2.1-0.9-3.2-1.3l-1.8-0.8c-0.8-0.4-1.6-0.8-2.4-1.1l-0.9-0.4c-0.7-0.3-1.3-0.6-2-1
		c-0.3-0.2-0.6-0.3-0.8-0.4c-0.2-0.1-0.5-0.3-0.8-0.4c0,0,0,0,0,0l-0.2-0.1l-1.1-0.6c-0.2-0.1-0.4-0.2-0.6-0.3
		c-0.2-0.1-0.4-0.2-0.6-0.3c0,0,0,0,0,0c-0.4-0.2-0.9-0.5-1.3-0.8c-0.5-0.3-0.9-0.5-1.3-0.8c-0.8-0.6-2-1.2-2.9-1.9
		c-0.5-0.3-0.9-0.6-1.3-0.9c0,0,0,0,0,0c-0.4-0.3-0.9-0.6-1.3-1c-0.1-0.1-0.3-0.2-0.4-0.3c-0.4-0.3-0.8-0.6-1.1-0.9l-1.1-0.9
		l-0.7-0.6l-0.9-0.7c-0.3-0.3-0.7-0.6-1-0.8c-0.6-0.5-1.1-1-1.7-1.5c-0.9-0.8-1.7-1.6-2.6-2.5l0,0l44,23.8l0,0l4.5,2.4l0,0
		C394.9,618.1,393.8,617.7,392.7,617.4z M464,665c-4.2-3.1-8.7-5.9-13.2-8.7l-3.4-2l-4.2-2.5c-4.1-2.4-8.2-4.9-12.2-7.5l-2.1-1.4
		l-0.4-0.3c-0.4-0.3-0.8-0.5-1.2-0.8c-0.5-0.4-1.1-0.7-1.6-1.1c-0.5-0.4-1.1-0.8-1.6-1.1c-0.5-0.4-1.1-0.8-1.6-1.1
		c-0.5-0.4-1.1-0.8-1.6-1.2c-0.5-0.4-1-0.8-1.6-1.2c-0.3-0.2-0.5-0.4-0.8-0.6c-0.2-0.2-0.5-0.4-0.8-0.6c-1.5-1.2-3-2.5-4.5-3.9
		c-0.5-0.5-1-0.9-1.5-1.4v0l0.2-0.2l0.7-0.9l26.1,17.8l26.1,17.8C464.5,664.3,464.2,664.7,464,665z M165.9,605.3
		c-29.5-33.2-44.7-73.9-56.7-115.9c-0.4-1.4,0.6-3.9,1.8-5c30.2-27.4,40-61.6,33-101c-1.6-9-5.8-17.6-9.2-27.3
		c-11.8,9.8-20.3,19.9-25.6,32.2c-5.2,12.3-9,25-13,36.6c-1.6-8.3-3.6-17.8-5.1-27.3c-0.4-2.3,0.2-5.7,1.7-7.2
		c18.9-19.4,28.5-42.8,30.2-69.5c1.1-17.4-1.9-34.1-10.5-50.2c-16.2,12.2-26.3,28.1-33.8,46.8c-0.9-2.1-1.3-3.1-1.7-4.1l-1.5,0.3
		c0.2,4.1,0.4,8.1,0.6,12.2c-2.3-10.7-3.8-21.6-4.5-32.5c-0.1-1.8,1.7-4.6,3.4-5.5c22.8-12.5,38-31.4,47.2-55.3
		c7.5-19.7,9.2-39.8,3.4-61.3c-36.8,19.9-55,50.9-60.6,90.9c0-4.3-0.1-8.6,0-12.9c0.2-18.2,1.2-36.4,0.3-54.6
		c-1.2-25.6-11-48.1-28.1-67.1c-5-5.6-11.2-10.2-17.2-15.6c-21.7,46.6,2.5,107.9,39.5,126.3c1.4-4.4,2.9-8.8,4.7-14.4
		c-4.4,100,9.2,196.5,32.9,291.6C71.4,487.6,40.3,472.9,0,476.4c-0.5,0-1,0.1-1.4,0.1c0.5,1,1,1.9,1.4,2.8
		c10.2,19.4,14.3,24.8,14.6,25.1c0,0,0,0,0,0c22.4,28.2,52,42.2,89.4,41c2.1-0.1,5.3,0.6,6.2,2c3.4,6.2,6.1,12.7,9.6,20.2
		c-23.4-13-47-19.6-72.5-15.6c21.8,30.7,48.6,54.3,49.4,55l0,0c15,6,31.2,8.3,47.2,6.7c4.1-0.4,6.3,0.3,8.9,3.5
		c11.7,14.6,25.4,27.5,40.8,38.1l55.7,4.3c-4.6-1.4-9.1-3-13.4-5C209.2,642.6,185.2,626.9,165.9,605.3z M72.6,335.8
		c0,0.6,0,1.3-0.1,1.9s-0.1,1.3-0.1,1.9s-0.1,1.3-0.1,1.9c-0.1,1.4-0.2,2.9-0.3,4.3s-0.2,2.9-0.4,4.3c-0.1,1.4-0.3,2.8-0.4,4.1
		c0,0.2-0.1,0.4-0.1,0.7c-0.1,1.3-0.3,2.5-0.5,3.8L68.5,332l-2.2-26.6c-0.7-8.5-1.4-17-2.1-25.5l0.1,0.2l0.5,1.3
		c0.3,0.8,0.6,1.7,0.9,2.6c0.2,0.6,0.5,1.3,0.7,2c0.7,2,1.2,3.9,1.8,5.9c0.2,0.9,0.5,1.8,0.7,2.6c1,4.1,1.8,8.2,2.4,12.4
		c0.1,0.5,0.1,1,0.2,1.5c0.1,1,0.2,2,0.4,3c0.2,1.5,0.3,3,0.4,4.5c0,0.6,0.1,1.1,0.1,1.7c0.1,0.9,0.1,1.7,0.2,2.6v0.6
		C72.8,325.8,72.8,330.8,72.6,335.8z M76.3,385.7L76.3,385.7c0.1,0.2,0.2,0.5,0.2,0.7C76.5,386.2,76.4,386,76.3,385.7z"/>
	<path class="st1" d="M96.6,607c-0.8-0.7-27.5-24.2-49.4-55L96.6,607z"/>
	<path class="st1" d="M14.6,504.5c-0.2-0.3-4.4-5.7-14.6-25.1L14.6,504.5z"/>
	<path class="st1" d="M249.3,659.6l-55.7-4.3C193.6,655.3,220.2,655.7,249.3,659.6z"/>
	<path class="st1" d="M553.3,805.4c-7.7-6.3-12.8-10.6-14.5-12L553.3,805.4z"/>
	<path class="st1" d="M687.6,903.4l-33.3-20.7C655.2,883.2,671.1,891.8,687.6,903.4z"/>
	<path class="st1" d="M804.2,964.3c-6.1-2.2-10.2-4-10.9-4.3L804.2,964.3z"/>
	<path class="st1" d="M1188.5,917.7c0.3-0.1,0.7-0.3,1.1-0.4L1188.5,917.7z"/>
	<path class="st1" d="M1196.6,914.4l-6.3,2.5C1192.1,916.2,1194.4,915.3,1196.6,914.4z"/>
	<path class="st1" d="M1325.3,855.3c-14.3,8.5-26.6,14.4-27.4,14.8L1325.3,855.3z"/>
	<path class="st1" d="M1495.6,670.3l-10.3,10.5C1485.9,680.1,1490.4,675,1495.6,670.3z"/>
	<path class="st1" d="M1853.9,498.7c-14.6,8.2-27.5,13.3-27.5,13.3L1853.9,498.7z"/>
</g>
<g id="Layer_2">
	<path class="st3" d="M1923.2,444.8v640.8H0V479.4c10.2,19.4,14.3,24.8,14.6,25.1c0,0,0,0,0,0c8,13,19.2,29.8,32.6,47.5
		c21.8,30.7,48.6,54.3,49.4,55l0,0c28.9,26.5,62.2,46.9,96.9,48.3l55.7,4.3c32.3,3.5,64.3,9.5,95.7,18.1c0,0,0,0,0,0
		c51.8,14.4,101.4,37.1,142,71.8c16.8,14.4,33.8,28.9,51.1,43.3l0.6,0.5c1.7,1.4,6.8,5.8,14.5,12c32.8,27,66.5,53.3,100.9,77.2l0,0
		l33.3,20.7c2.5,2.4,5.3,4.6,8.2,6.6c31.8,19.6,64.3,36.7,97.4,50l0,0c0,0,0,0,0,0l0.1,0c0.7,0.3,4.8,2.1,10.9,4.3
		c77.6,28.9,158.7,36.1,243.2,5.3c50.5-18.4,97.3-35,139.9-51.4l0.2-0.1c0.1,0,0.1,0,0.2-0.1l0.3-0.1c0,0,0.1,0,0.1,0l0.4-0.1
		c0,0,0.1,0,0.1,0l1.1-0.4l0.7-0.3l6.3-2.5l0.9-0.3c36.6-14.3,70.2-28.6,100.4-44c0,0,0,0,0,0c0.8-0.4,13.1-6.2,27.4-14.8
		c61.2-35.1,106.6-77.1,134.6-137.2c6.5-13.6,15-26.2,25.3-37.2l0,0l0.1,0l10.3-10.5C1572.8,597,1728.3,556,1826.4,512
		c0,0,12.9-5.1,27.5-13.3c17-8.9,31.2-18.2,41.4-27.9C1904.6,462,1914,453.4,1923.2,444.8z"/>
</g>
</svg>
